<svg width="18" height="18" viewBox="0 0 18 18" fill="none" xmlns="http://www.w3.org/2000/svg">
<g id="si_close_thin">
<path id="Stroke" fill-rule="evenodd" clip-rule="evenodd" d="M14.0739 4.32387C14.1837 4.21404 14.1837 4.03596 14.0739 3.92613C13.964 3.81629 13.786 3.81629 13.6761 3.92613L9 8.60225L4.32387 3.92613C4.21404 3.81629 4.03596 3.81629 3.92613 3.92613C3.81629 4.03596 3.81629 4.21404 3.92613 4.32387L8.60225 9L3.92613 13.6761C3.81629 13.786 3.81629 13.964 3.92613 14.0739C4.03596 14.1837 4.21404 14.1837 4.32387 14.0739L9 9.39775L13.6761 14.0739C13.786 14.1837 13.964 14.1837 14.0739 14.0739C14.1837 13.964 14.1837 13.786 14.0739 13.6761L9.39775 9L14.0739 4.32387Z" fill="#333333"/>
</g>
</svg>
